<?xml version="1.0" encoding="UTF-8"?>
<svg id="Layer_1" data-name="Layer 1" xmlns="http://www.w3.org/2000/svg" xmlns:xlink="http://www.w3.org/1999/xlink" viewBox="0 0 257.91 257">
  <defs>
    <style>
      .cls-1 {
        fill: url(#linear-gradient);
        stroke: #231f20;
        stroke-miterlimit: 10;
        stroke-width: 2px;
      }
    </style>
    <linearGradient id="linear-gradient" x1="46.83" y1="19.24" x2="176.03" y2="264.58" gradientUnits="userSpaceOnUse">
      <stop offset="0" stop-color="#2aace2"/>
      <stop offset=".09" stop-color="#29a8df"/>
      <stop offset=".17" stop-color="#269dd7"/>
      <stop offset=".25" stop-color="#228aca"/>
      <stop offset=".32" stop-color="#1d75bc"/>
      <stop offset=".36" stop-color="#226bb4"/>
      <stop offset=".53" stop-color="#3c3f8f"/>
      <stop offset=".62" stop-color="#472e81"/>
      <stop offset=".82" stop-color="#5e2c75"/>
      <stop offset=".86" stop-color="#682873"/>
      <stop offset=".93" stop-color="#752570"/>
      <stop offset="1" stop-color="#7a2470"/>
    </linearGradient>
  </defs>
  <path class="cls-1" d="M256.37,218.64l-16.73,37.36h-41.37l-11.46-37.36h69.55ZM119.22,1l11.59,37.36h61.08S207.37,1,207.37,1h-88.15ZM198.27,256H1.37S82.5,1,82.5,1h36.68s79.1,255,79.1,255ZM52.79,218.64h96.36S100,39.44,100,39.44l-47.21,179.2ZM128.15,141.89l-10.46-37.36h-18.55l-12.09,37.36h41.1ZM162.86,141.86l59.93.03,15.6-37.36h-87.1s11.58,37.32,11.58,37.32Z"/>
</svg>